<svg width="460" height="479" viewBox="0 0 460 479" fill="none" xmlns="http://www.w3.org/2000/svg">
<g clip-path="url(#clip0_3_59)">
<path d="M408.681 364.533L408.672 364.749L419.471 479H340.665L330.45 408.83L325.954 477.201L245.025 476.301L253.622 386.537L260.932 344.93V344.921L262.029 338.66H406.532L406.721 340.927L408.681 364.533Z" fill="#2F2E41"/>
<path d="M200.418 430.764C208.764 432.286 217.467 422.882 219.856 409.76C220.902 404.017 220.565 398.513 219.155 394.012L220.434 386.448L241.91 284.693C241.91 284.693 281.458 205.549 281.457 191.809C281.456 178.069 270.017 171.331 270.017 171.331L254.538 171.476L205.996 290.087L197.254 377.737L195.84 389.762C192.934 393.476 190.678 398.508 189.632 404.251C187.242 417.373 192.071 429.243 200.418 430.764Z" fill="#FFB6B6"/>
<path d="M357.876 122.302L343.488 89.0157L296.73 97.1123L293.583 136.274L357.876 122.302Z" fill="#FFB6B6"/>
<path opacity="0.1" d="M357.876 122.302L343.488 89.0157L296.73 97.1123L293.583 136.274L357.876 122.302Z" fill="black"/>
<path d="M459.486 191.572C459.486 191.572 426.216 129.499 419.921 123.201C417.119 120.398 412.714 120.359 408.687 121.176L362.372 105.209L346.674 96.3843L345.639 113.173L294.101 122.428C294.387 112.189 295.831 108.295 295.831 108.295L276.947 130.398L240.08 148.39L240.1 148.552C237.395 149.497 234.83 151.114 232.886 153.788C225.693 163.684 205.91 284.233 205.91 284.233L248.173 293.229L253.925 257.119L258.064 289.63L261.211 350.355C261.211 350.355 318.76 399.834 346.636 381.841C374.511 363.849 408.681 364.749 408.681 364.749L409.534 336.601C410.14 335.631 410.479 335.061 410.479 335.061L409.58 235.218V208.65C416.431 218.198 424.697 226.41 434.308 230.256C465.781 242.85 459.486 191.572 459.486 191.572Z" fill="#1E1E1E"/>
<path d="M315.222 102.969C338.979 102.969 358.238 83.7008 358.238 59.9324C358.238 36.1641 338.979 16.8961 315.222 16.8961C291.464 16.8961 272.205 36.1641 272.205 59.9324C272.205 83.7008 291.464 102.969 315.222 102.969Z" fill="#FFB6B6"/>
<path d="M346.081 72.0949C346.081 72.0949 349.822 58.9969 358.238 59.9324C366.655 60.868 368.525 53.3834 366.655 49.6411C364.784 45.8989 361.044 27.1874 361.044 27.1874C361.044 27.1874 362.914 14.0894 351.692 12.2182C340.471 10.3471 336.73 8.47595 334.86 4.73365C332.989 0.991362 304.935 -2.75093 295.584 2.86251C286.232 8.47595 278.751 19.2461 272.205 22.2812C265.659 25.3163 260.048 30.9297 263.789 40.2854C267.529 49.6411 272.954 67.9389 272.954 67.9389C272.954 67.9389 282.492 64.6103 284.362 70.2237C286.232 75.8372 278.751 68.3526 288.103 53.3834C297.454 38.4143 297.454 23.4451 312.416 29.0585C327.379 34.672 344.211 32.8008 342.341 44.0277C340.471 55.2546 346.081 72.0949 346.081 72.0949Z" fill="#2F2E41"/>
<g filter="url(#filter0_d_3_59)">
<path d="M343.451 413.27H16.7551C7.51615 413.27 0 405.75 0 396.507V222.887C0 213.645 7.51615 206.125 16.7551 206.125H343.451C352.69 206.125 360.206 213.645 360.206 222.887V396.507C360.206 405.75 352.69 413.27 343.451 413.27Z" fill="white"/>
</g>
<path d="M343.451 413.27H16.7551C7.51615 413.27 0 405.75 0 396.507V222.887C0 213.645 7.51615 206.125 16.7551 206.125H343.451C352.69 206.125 360.206 213.645 360.206 222.887V396.507C360.206 405.75 352.69 413.27 343.451 413.27ZM16.7551 208.924C9.05928 208.924 2.79798 215.188 2.79798 222.887V396.507C2.79798 404.207 9.05928 410.471 16.7551 410.471H343.451C351.147 410.471 357.408 404.207 357.408 396.507V222.887C357.408 215.188 351.147 208.924 343.451 208.924H16.7551Z" fill="#3F3D56"/>
<path d="M318.237 227.119C320.554 227.119 322.433 225.239 322.433 222.92C322.433 220.601 320.554 218.721 318.237 218.721C315.919 218.721 314.04 220.601 314.04 222.92C314.04 225.239 315.919 227.119 318.237 227.119Z" fill="#3F3D56"/>
<path d="M329.428 227.119C331.746 227.119 333.625 225.239 333.625 222.92C333.625 220.601 331.746 218.721 329.428 218.721C327.11 218.721 325.231 220.601 325.231 222.92C325.231 225.239 327.11 227.119 329.428 227.119Z" fill="#3F3D56"/>
<path d="M340.62 227.119C342.938 227.119 344.817 225.239 344.817 222.92C344.817 220.601 342.938 218.721 340.62 218.721C338.302 218.721 336.423 220.601 336.423 222.92C336.423 225.239 338.302 227.119 340.62 227.119Z" fill="#3F3D56"/>
<path d="M23.7828 290.802C22.6256 290.802 21.6843 291.744 21.6843 292.902C21.6843 293.466 21.9022 293.988 22.2977 294.374C22.6967 294.783 23.2193 295.001 23.7828 295.001H337.822C338.979 295.001 339.921 294.06 339.921 292.902C339.921 292.337 339.703 291.815 339.307 291.43C338.908 291.021 338.386 290.802 337.822 290.802H23.7828Z" fill="#E6E6E6"/>
<path d="M298.651 290.103V295.701H23.7829C23.0134 295.701 22.3139 295.393 21.8103 294.875C21.2926 294.371 20.9849 293.672 20.9849 292.902C20.9849 291.362 22.244 290.103 23.7828 290.103H298.651Z" fill="#6C63FF"/>
<path d="M334.325 279.605H306.345C303.259 279.605 300.749 277.094 300.749 274.007C300.749 270.919 303.259 268.408 306.345 268.408H334.325C337.41 268.408 339.921 270.919 339.921 274.007C339.921 277.094 337.41 279.605 334.325 279.605Z" fill="#E6E6E6"/>
<path d="M151.057 250.213H25.8813C22.7957 250.213 20.2853 247.702 20.2853 244.615C20.2853 241.527 22.7957 239.016 25.8813 239.016H151.057C154.143 239.016 156.653 241.527 156.653 244.615C156.653 247.702 154.143 250.213 151.057 250.213Z" fill="#E6E6E6"/>
<path d="M23.7828 353.786C22.6256 353.786 21.6843 354.728 21.6843 355.885C21.6843 356.45 21.9022 356.972 22.2977 357.357C22.6967 357.766 23.2193 357.985 23.7828 357.985H337.822C338.979 357.985 339.921 357.043 339.921 355.885C339.921 355.321 339.703 354.799 339.307 354.413C338.908 354.005 338.386 353.786 337.822 353.786H23.7828Z" fill="#E6E6E6"/>
<path d="M190.928 353.086V358.685H23.7829C23.0134 358.685 22.3139 358.377 21.8103 357.859C21.2926 357.355 20.9849 356.655 20.9849 355.885C20.9849 354.346 22.244 353.086 23.7828 353.086H190.928Z" fill="#6C63FF"/>
<path d="M334.325 342.589H306.345C303.259 342.589 300.749 340.078 300.749 336.99C300.749 333.903 303.259 331.392 306.345 331.392H334.325C337.41 331.392 339.921 333.903 339.921 336.99C339.921 340.078 337.41 342.589 334.325 342.589Z" fill="#E6E6E6"/>
<path d="M383.308 106.281C407.506 106.281 427.123 87.0692 427.123 63.3698C427.123 39.6704 407.506 20.4583 383.308 20.4583C359.109 20.4583 339.493 39.6704 339.493 63.3698C339.493 87.0692 359.109 106.281 383.308 106.281Z" fill="#6C63FF"/>
<path d="M398.179 41.725C392.345 52.3514 386.512 62.9779 380.679 73.6044C376.961 67.0327 373.264 60.4494 369.537 53.8829C368.25 51.615 364.749 53.6548 366.039 55.9283C370.36 63.5404 374.635 71.1778 378.955 78.7899C379.694 80.0914 381.722 80.1217 382.453 78.7899C388.861 67.1167 395.269 55.4436 401.676 43.7704C402.932 41.4831 399.435 39.4359 398.179 41.725Z" fill="white"/>
<path d="M443.792 176.48L400.138 155.587C400.138 155.587 398.385 141.604 390.199 136.616C388.807 133.295 387.206 129.645 385.751 126.754C382.154 119.603 387.55 106.108 383.053 106.108C378.557 106.108 371.911 120.3 372.263 124.101C372.533 127.018 374.943 132.112 375.441 136.57C369.959 138.639 365.536 142.185 362.628 145.008C360.111 147.451 359.176 151.096 360.16 154.464C363.01 164.222 370.133 184.375 380.356 184.375C393.844 184.375 397.441 181.676 397.441 181.676C397.441 181.676 425.316 216.761 445.998 219.46C466.68 222.159 443.792 176.48 443.792 176.48Z" fill="#FFB6B6"/>
</g>
<defs>
<filter id="filter0_d_3_59" x="-4" y="206.125" width="368.206" height="215.145" filterUnits="userSpaceOnUse" color-interpolation-filters="sRGB">
<feFlood flood-opacity="0" result="BackgroundImageFix"/>
<feColorMatrix in="SourceAlpha" type="matrix" values="0 0 0 0 0 0 0 0 0 0 0 0 0 0 0 0 0 0 127 0" result="hardAlpha"/>
<feOffset dy="4"/>
<feGaussianBlur stdDeviation="2"/>
<feComposite in2="hardAlpha" operator="out"/>
<feColorMatrix type="matrix" values="0 0 0 0 0 0 0 0 0 0 0 0 0 0 0 0 0 0 0.25 0"/>
<feBlend mode="normal" in2="BackgroundImageFix" result="effect1_dropShadow_3_59"/>
<feBlend mode="normal" in="SourceGraphic" in2="effect1_dropShadow_3_59" result="shape"/>
</filter>
<clipPath id="clip0_3_59">
<rect width="460" height="479" fill="white"/>
</clipPath>
</defs>
</svg>
